# xmcd
#
# Track frame offsets:
#  150
#  10275
#  32705
#  55163
#  75524
#  89134
#  106951
#  119368
#  139919
#  152690
#  182201
#  204107
#
# Disc length: 2809 seconds
#
# Revision: 2
# Processed by: cddbd v1.5.1PL0 Copyright (c) Steve Scherf et al.
# Submitted via: Collectorz.com Music Collector 6.9
#
DISCID=9a0af70c
DTITLE=Vlasta Redl - Dopisy z kvetin
DYEAR=2004
DGENRE=Alt-Folk - Folk
TTITLE0=Okna
TTITLE1=Buh s tebou Ameriko
TTITLE2=Rafajuv zakon
TTITLE3=Merlin
TTITLE4=Moc dobre vim
TTITLE5=Dopisy z kvetin
TTITLE6=Domori
TTITLE7=Twin Peaks
TTITLE8=Bila mista
TTITLE9=Chci byt s ni
TTITLE10=Vyleteli okna
TTITLE11=Sest destovych kapek
EXTD=
EXTT0=
EXTT1=
EXTT2=
EXTT3=
EXTT4=
EXTT5=
EXTT6=
EXTT7=
EXTT8=
EXTT9=
EXTT10=
EXTT11=
PLAYORDER=
